HIERARCHY
ROOT Hips
{
  OFFSET 0 96 0
  CHANNELS 6 Xposition Yposition Zposition Zrotation Xrotation Yrotation
  JOINT Spine
  {
    OFFSET 0 18 0
    CHANNELS 3 Zrotation Xrotation Yrotation
    JOINT Spine1
    {
      OFFSET 0 16 0
      CHANNELS 3 Zrotation Xrotation Yrotation
      JOINT Neck
      {
        OFFSET 0 14 0
        CHANNELS 3 Zrotation Xrotation Yrotation
        JOINT Head
        {
          OFFSET 0 12 0
          CHANNELS 3 Zrotation Xrotation Yrotation
          End Site
          {
            OFFSET 0 10 0
          }
        }
      }
      JOINT LeftShoulder
      {
        OFFSET 7 12 0
        CHANNELS 3 Zrotation Xrotation Yrotation
        JOINT LeftArm
        {
          OFFSET 14 0 0
          CHANNELS 3 Zrotation Xrotation Yrotation
          JOINT LeftForeArm
          {
            OFFSET 26 0 0
            CHANNELS 3 Zrotation Xrotation Yrotation
            JOINT LeftHand
            {
              OFFSET 24 0 0
              CHANNELS 3 Zrotation Xrotation Yrotation
              End Site
              {
                OFFSET 10 0 0
              }
            }
          }
        }
      }
      JOINT RightShoulder
      {
        OFFSET -7 12 0
        CHANNELS 3 Zrotation Xrotation Yrotation
        JOINT RightArm
        {
          OFFSET -14 0 0
          CHANNELS 3 Zrotation Xrotation Yrotation
          JOINT RightForeArm
          {
            OFFSET -26 0 0
            CHANNELS 3 Zrotation Xrotation Yrotation
            JOINT RightHand
            {
              OFFSET -24 0 0
              CHANNELS 3 Zrotation Xrotation Yrotation
              End Site
              {
                OFFSET -10 0 0
              }
            }
          }
        }
      }
    }
  }
  JOINT LeftUpLeg
  {
    OFFSET 9 -6 0
    CHANNELS 3 Zrotation Xrotation Yrotation
    JOINT LeftLeg
    {
      OFFSET 0 -42 0
      CHANNELS 3 Zrotation Xrotation Yrotation
      JOINT LeftFoot
      {
        OFFSET 0 -42 0
        CHANNELS 3 Zrotation Xrotation Yrotation
        End Site
        {
          OFFSET 0 -4 12
        }
      }
    }
  }
  JOINT RightUpLeg
  {
    OFFSET -9 -6 0
    CHANNELS 3 Zrotation Xrotation Yrotation
    JOINT RightLeg
    {
      OFFSET 0 -42 0
      CHANNELS 3 Zrotation Xrotation Yrotation
      JOINT RightFoot
      {
        OFFSET 0 -42 0
        CHANNELS 3 Zrotation Xrotation Yrotation
        End Site
        {
          OFFSET 0 -4 12
        }
      }
    }
  }
}
MOTION
Frames: 43
Frame Time: 0.0333333
0 0 0 0 0 0 0 0 0 0 0 0 0 0 0 0 0 0 6 0 10 0 -8 -88 150 6 0 0 12 0 6 0 -10 0 -8 88 -150 -6 0 0 -12 0 0 0 0 0 0 0 0 0 0 0 0 0 0 0 0 0 0 0
0 -0.000055 -0.050844 0 0.003884 0 0 0.006797 0 0 0.003059 0 0 -0.004758 0 0 -0.001699 0 6 0 10 0 -8 -88 150 6 0 0 12 0 6 0 -10 0 -8 88 -150 -6 0 0 -12 0 0.00971 -0.09322 0 0 0.108757 0 0 -0.023305 0 -0.00971 -0.09322 0 0 0.108757 0 0 -0.023305 0
0 -0.000873 -0.203175 0 0.015522 0 0 0.027163 0 0 0.012223 0 0 -0.019014 0 0 -0.006791 0 6 0 10 0 -8 -88 150 6 0 0 12 0 6 0 -10 0 -8 88 -150 -6 0 0 -12 0 0.038804 -0.372518 0 0 0.434604 0 0 -0.09313 0 -0.038804 -0.372518 0 0 0.434604 0 0 -0.09313 0
0 -0.004407 -0.45639 0 0.034867 0 0 0.061017 0 0 0.027458 0 0 -0.042712 0 0 -0.015254 0 6 0 10 0 -8 -88 150 6 0 0 12 0 6 0 -10 0 -8 88 -150 -6 0 0 -12 0 0.087168 -0.836809 0 0 0.976277 0 0 -0.209202 0 -0.087168 -0.836809 0 0 0.976277 0 0 -0.209202 0
0 -0.013864 -0.809449 0 0.061845 0 0 0.108229 0 0 0.048703 0 0 -0.075761 0 0 -0.027057 0 6 0 10 0 -8 -88 150 6 0 0 12 0 6 0 -10 0 -8 88 -150 -6 0 0 -12 0 0.154614 -1.48429 0 0 1.731672 0 0 -0.371073 0 -0.154614 -1.48429 0 0 1.731672 0 0 -0.371073 0
0 -0.033647 -1.260844 0 0.096352 0 0 0.168616 0 0 0.075877 0 0 -0.118031 0 0 -0.042154 0 6 0 10 0 -8 -88 150 6 0 0 12 0 6 0 -10 0 -8 88 -150 -6 0 0 -12 0 0.24088 -2.312446 0 0 2.697854 0 0 -0.578112 0 -0.24088 -2.312446 0 0 2.697854 0 0 -0.578112 0
0 -0.069265 -1.808541 0 0.138253 0 0 0.241942 0 0 0.108874 0 0 -0.169359 0 0 -0.060485 0 6 0 10 0 -8 -88 150 6 0 0 12 0 6 0 -10 0 -8 88 -150 -6 0 0 -12 0 0.345631 -3.31806 0 0 3.87107 0 0 -0.829515 0 -0.345631 -3.31806 0 0 3.87107 0 0 -0.829515 0
0 -0.127217 -2.449918 0 0.187384 0 0 0.327923 0 0 0.147565 0 0 -0.229546 0 0 -0.081981 0 6 0 10 0 -8 -88 150 6 0 0 12 0 6 0 -10 0 -8 88 -150 -6 0 0 -12 0 0.468461 -4.497226 0 0 5.246764 0 0 -1.124307 0 -0.468461 -4.497226 0 0 5.246764 0 0 -1.124307 0
0 -0.21485 -3.1817 0 0.243557 0 0 0.426224 0 0 0.191801 0 0 -0.298357 0 0 -0.106556 0 6 0 10 0 -8 -88 150 6 0 0 12 0 6 0 -10 0 -8 88 -150 -6 0 0 -12 0 0.608892 -5.845364 0 0 6.819592 0 0 -1.461341 0 -0.608892 -5.845364 0 0 6.819592 0 0 -1.461341 0
0 -0.340202 -3.999891 0 0.306552 0 0 0.536465 0 0 0.241409 0 0 -0.375526 0 0 -0.134116 0 6 0 10 0 -8 -88 150 6 0 0 12 0 6 0 -10 0 -8 88 -150 -6 0 0 -12 0 0.766379 -7.357238 0 0 8.583445 0 0 -1.83931 0 -0.766379 -7.357238 0 0 8.583445 0 0 -1.83931 0
0 -0.511814 -4.899707 0 0.376124 0 0 0.658217 0 0 0.296198 0 0 -0.460752 0 0 -0.164554 0 6 0 10 0 -8 -88 150 6 0 0 12 0 6 0 -10 0 -8 88 -150 -6 0 0 -12 0 0.94031 -9.026976 0 0 10.531472 0 0 -2.256744 0 -0.94031 -9.026976 0 0 10.531472 0 0 -2.256744 0
0 -0.738522 -5.875526 0 0.452004 0 0 0.791007 0 0 0.355953 0 0 -0.553705 0 0 -0.197752 0 6 0 10 0 -8 -88 150 6 0 0 12 0 6 0 -10 0 -8 88 -150 -6 0 0 -12 0 1.130009 -10.848091 0 0 12.656106 0 0 -2.712023 0 -1.130009 -10.848091 0 0 12.656106 0 0 -2.712023 0
0 -1.029242 -6.920852 0 0.533896 0 0 0.934318 0 0 0.420443 0 0 -0.654023 0 0 -0.23358 0 6 0 10 0 -8 -88 150 6 0 0 12 0 6 0 -10 0 -8 88 -150 -6 0 0 -12 0 1.334741 -12.81351 0 0 14.949095 0 0 -3.203378 0 -1.334741 -12.81351 0 0 14.949095 0 0 -3.203378 0
0 -1.392728 -8.028289 0 0.621483 0 0 1.087596 0 0 0.489418 0 0 -0.761317 0 0 -0.271899 0 6 0 10 0 -8 -88 150 6 0 0 12 0 6 0 -10 0 -8 88 -150 -6 0 0 -12 0 1.553708 -14.9156 0 0 17.401533 0 0 -3.7289 0 -1.553708 -14.9156 0 0 17.401533 0 0 -3.7289 0
0 -1.837335 -9.189558 0 0.714425 0 0 1.250243 0 0 0.56261 0 0 -0.87517 0 0 -0.312561 0 6 0 10 0 -8 -88 150 6 0 0 12 0 6 0 -10 0 -8 88 -150 -6 0 0 -12 0 1.786062 -17.146195 0 0 20.003894 0 0 -4.286549 0 -1.786062 -17.146195 0 0 20.003894 0 0 -4.286549 0
0 -2.370774 -10.395523 0 0.81236 0 0 1.421629 0 0 0.639733 0 0 -0.995141 0 0 -0.355407 0 6 0 10 0 -8 -88 150 6 0 0 12 0 6 0 -10 0 -8 88 -150 -6 0 0 -12 0 2.030899 -19.496631 0 0 22.74607 0 0 -4.874158 0 -2.030899 -19.496631 0 0 22.74607 0 0 -4.874158 0
0 -2.999875 -11.636263 0 0.914907 0 0 1.601088 0 0 0.72049 0 0 -1.120762 0 0 -0.400272 0 6 0 10 0 -8 -88 150 6 0 0 12 0 6 0 -10 0 -8 88 -150 -6 0 0 -12 0 2.287269 -21.957779 0 0 25.617409 0 0 -5.489445 0 -2.287269 -21.957779 0 0 25.617409 0 0 -5.489445 0
0 -3.730355 -12.901171 0 1.02167 0 0 1.787922 0 0 0.804565 0 0 -1.251546 0 0 -0.446981 0 6 0 10 0 -8 -88 150 6 0 0 12 0 6 0 -10 0 -8 88 -150 -6 0 0 -12 0 2.554175 -24.52008 0 0 28.60676 0 0 -6.13002 0 -2.554175 -24.52008 0 0 28.60676 0 0 -6.13002 0
0 -4.566618 -14.179076 0 1.132233 0 0 1.981407 0 0 0.891633 0 0 -1.386985 0 0 -0.495352 0 6 0 10 0 -8 -88 150 6 0 0 12 0 6 0 -10 0 -8 88 -150 -6 0 0 -12 0 2.830581 -27.173581 0 0 31.702511 0 0 -6.793395 0 -2.830581 -27.173581 0 0 31.702511 0 0 -6.793395 0
0 -5.511567 -15.458415 0 1.246166 0 0 2.18079 0 0 0.981355 0 0 -1.526553 0 0 -0.545197 0 6 0 10 0 -8 -88 150 6 0 0 12 0 6 0 -10 0 -8 88 -150 -6 0 0 -12 0 3.115414 -29.907974 0 0 34.892637 0 0 -7.476994 0 -3.115414 -29.907974 0 0 34.892637 0 0 -7.476994 0
0 -6.566459 -16.727411 0 1.363027 0 0 2.385297 0 0 1.073384 0 0 -1.669708 0 0 -0.596324 0 6 0 10 0 -8 -88 150 6 0 0 12 0 6 0 -10 0 -8 88 -150 -6 0 0 -12 0 3.407567 -32.712641 0 0 38.164748 0 0 -8.17816 0 -3.407567 -32.712641 0 0 38.164748 0 0 -8.17816 0
0 -7.730799 -17.974285 0 1.482362 0 0 2.594133 0 0 1.16736 0 0 -1.815893 0 0 -0.648533 0 6 0 10 0 -8 -88 150 6 0 0 12 0 6 0 -10 0 -8 88 -150 -6 0 0 -12 0 3.705905 -35.576686 0 0 41.506133 0 0 -8.894171 0 -3.705905 -35.576686 0 0 41.506133 0 0 -8.894171 0
0 -9.002272 -19.187483 0 1.603708 0 0 2.806488 0 0 1.26292 0 0 -1.964542 0 0 -0.701622 0 6 0 10 0 -8 -88 150 6 0 0 12 0 6 0 -10 0 -8 88 -150 -6 0 0 -12 0 4.009269 -38.488985 0 0 44.903816 0 0 -9.622246 0 -4.009269 -38.488985 0 0 44.903816 0 0 -9.622246 0
0 -10.376726 -20.355907 0 1.726593 0 0 3.021537 0 0 1.359692 0 0 -2.115076 0 0 -0.755384 0 6 0 10 0 -8 -88 150 6 0 0 12 0 6 0 -10 0 -8 88 -150 -6 0 0 -12 0 4.316482 -41.438227 0 0 48.344598 0 0 -10.359557 0 -4.316482 -41.438227 0 0 48.344598 0 0 -10.359557 0
0 -11.848206 -21.469148 0 1.85054 0 0 3.238445 0 0 1.4573 0 0 -2.266911 0 0 -0.809611 0 6 0 10 0 -8 -88 150 6 0 0 12 0 6 0 -10 0 -8 88 -150 -6 0 0 -12 0 4.62635 -44.412956 0 0 51.815115 0 0 -11.103239 0 -4.62635 -44.412956 0 0 51.815115 0 0 -11.103239 0
0 -13.40903 -22.517713 0 1.975067 0 0 3.456368 0 0 1.555366 0 0 -2.419458 0 0 -0.864092 0 6 0 10 0 -8 -88 150 6 0 0 12 0 6 0 -10 0 -8 88 -150 -6 0 0 -12 0 4.937668 -47.401617 0 0 55.301886 0 0 -11.850404 0 -4.937668 -47.401617 0 0 55.301886 0 0 -11.850404 0
0 -15.049916 -23.493234 0 2.099692 0 0 3.674461 0 0 1.653507 0 0 -2.572122 0 0 -0.918615 0 6 0 10 0 -8 -88 150 6 0 0 12 0 6 0 -10 0 -8 88 -150 -6 0 0 -12 0 5.249229 -50.392603 0 0 58.79137 0 0 -12.598151 0 -5.249229 -50.392603 0 0 58.79137 0 0 -12.598151 0
0 -16.760146 -24.388649 0 2.223929 0 0 3.891876 0 0 1.751344 0 0 -2.724313 0 0 -0.972969 0 6 0 10 0 -8 -88 150 6 0 0 12 0 6 0 -10 0 -8 88 -150 -6 0 0 -12 0 5.559822 -53.374295 0 0 62.270011 0 0 -13.343574 0 -5.559822 -53.374295 0 0 62.270011 0 0 -13.343574 0
0 -18.52777 -25.198363 0 2.347296 0 0 4.107769 0 0 1.848496 0 0 -2.875438 0 0 -1.026942 0 6 0 10 0 -8 -88 150 6 0 0 12 0 6 0 -10 0 -8 88 -150 -6 0 0 -12 0 5.868241 -56.335113 0 0 65.724298 0 0 -14.083778 0 -5.868241 -56.335113 0 0 65.724298 0 0 -14.083778 0
0 -20.339832 -25.918354 0 2.469315 0 0 4.321301 0 0 1.944585 0 0 -3.024911 0 0 -1.080325 0 6 0 10 0 -8 -88 150 6 0 0 12 0 6 0 -10 0 -8 88 -150 -6 0 0 -12 0 6.173287 -59.263555 0 0 69.140814 0 0 -14.815889 0 -6.173287 -59.263555 0 0 69.140814 0 0 -14.815889 0
0 -22.182618 -26.546255 0 2.58951 0 0 4.531643 0 0 2.039239 0 0 -3.17215 0 0 -1.132911 0 6 0 10 0 -8 -88 150 6 0 0 12 0 6 0 -10 0 -8 88 -150 -6 0 0 -12 0 6.473776 -62.148248 0 0 72.50629 0 0 -15.537062 0 -6.473776 -62.148248 0 0 72.50629 0 0 -15.537062 0
0 -24.041916 -27.081381 0 2.707416 0 0 4.737978 0 0 2.13209 0 0 -3.316585 0 0 -1.184495 0 6 0 10 0 -8 -88 150 6 0 0 12 0 6 0 -10 0 -8 88 -150 -6 0 0 -12 0 6.76854 -64.977987 0 0 75.807652 0 0 -16.244497 0 -6.76854 -64.977987 0 0 75.807652 0 0 -16.244497 0
0 -25.903271 -27.524715 0 2.822574 0 0 4.939505 0 0 2.222777 0 0 -3.457653 0 0 -1.234876 0 6 0 10 0 -8 -88 150 6 0 0 12 0 6 0 -10 0 -8 88 -150 -6 0 0 -12 0 7.056436 -67.741781 0 0 79.032078 0 0 -16.935445 0 -7.056436 -67.741781 0 0 79.032078 0 0 -16.935445 0
0 -27.752238 -27.878852 0 2.934537 0 0 5.13544 0 0 2.310948 0 0 -3.594808 0 0 -1.28386 0 6 0 10 0 -8 -88 150 6 0 0 12 0 6 0 -10 0 -8 88 -150 -6 0 0 -12 0 7.336343 -70.428894 0 0 82.167043 0 0 -17.607224 0 -7.336343 -70.428894 0 0 82.167043 0 0 -17.607224 0
0 -29.574618 -28.147895 0 3.04287 0 0 5.325023 0 0 2.39626 0 0 -3.727516 0 0 -1.331256 0 6 0 10 0 -8 -88 150 6 0 0 12 0 6 0 -10 0 -8 88 -150 -6 0 0 -12 0 7.607176 -73.02889 0 0 85.200371 0 0 -18.257222 0 -7.607176 -73.02889 0 0 85.200371 0 0 -18.257222 0
0 -31.356663 -28.337324 0 3.147153 0 0 5.507518 0 0 2.478383 0 0 -3.855262 0 0 -1.376879 0 6 0 10 0 -8 -88 150 6 0 0 12 0 6 0 -10 0 -8 88 -150 -6 0 0 -12 0 7.867882 -75.531669 0 0 88.12028 0 0 -18.882917 0 -7.867882 -75.531669 0 0 88.12028 0 0 -18.882917 0
0 -33.085266 -28.453822 0 3.24698 0 0 5.682214 0 0 2.556996 0 0 -3.97755 0 0 -1.420554 0 6 0 10 0 -8 -88 150 6 0 0 12 0 6 0 -10 0 -8 88 -150 -6 0 0 -12 0 8.117449 -77.92751 0 0 90.915429 0 0 -19.481878 0 -8.117449 -77.92751 0 0 90.915429 0 0 -19.481878 0
0 -34.748107 -28.505089 0 3.341963 0 0 5.848435 0 0 2.631796 0 0 -4.093904 0 0 -1.462109 0 6 0 10 0 -8 -88 150 6 0 0 12 0 6 0 -10 0 -8 88 -150 -6 0 0 -12 0 8.354907 -80.207109 0 0 93.57496 0 0 -20.051777 0 -8.354907 -80.207109 0 0 93.57496 0 0 -20.051777 0
0 -36.333771 -28.499623 0 3.431734 0 0 6.005534 0 0 2.70249 0 0 -4.203874 0 0 -1.501383 0 6 0 10 0 -8 -88 150 6 0 0 12 0 6 0 -10 0 -8 88 -150 -6 0 0 -12 0 8.579334 -82.361609 0 0 96.088544 0 0 -20.590402 0 -8.579334 -82.361609 0 0 96.088544 0 0 -20.590402 0
0 -37.831829 -28.446497 0 3.515943 0 0 6.152901 0 0 2.768805 0 0 -4.307031 0 0 -1.538225 0 6 0 10 0 -8 -88 150 6 0 0 12 0 6 0 -10 0 -8 88 -150 -6 0 0 -12 0 8.789859 -84.382643 0 0 98.446416 0 0 -21.095661 0 -8.789859 -84.382643 0 0 98.446416 0 0 -21.095661 0
0 -39.232884 -28.355132 0 3.594265 0 0 6.289964 0 0 2.830484 0 0 -4.402975 0 0 -1.572491 0 6 0 10 0 -8 -88 150 6 0 0 12 0 6 0 -10 0 -8 88 -150 -6 0 0 -12 0 8.985663 -86.26236 0 0 100.63942 0 0 -21.56559 0 -8.985663 -86.26236 0 0 100.63942 0 0 -21.56559 0
0 -40.528591 -28.235064 0 3.666394 0 0 6.41619 0 0 2.887285 0 0 -4.491333 0 0 -1.604047 0 6 0 10 0 -8 -88 150 6 0 0 12 0 6 0 -10 0 -8 88 -150 -6 0 0 -12 0 9.165985 -87.993461 0 0 102.659037 0 0 -21.998365 0 -9.165985 -87.993461 0 0 102.659037 0 0 -21.998365 0
0 -41.711641 -28.095724 0 3.732051 0 0 6.531089 0 0 2.93899 0 0 -4.571762 0 0 -1.632772 0 6 0 10 0 -8 -88 150 6 0 0 12 0 6 0 -10 0 -8 88 -150 -6 0 0 -12 0 9.330127 -89.569219 0 0 104.497423 0 0 -22.392305 0 -9.330127 -89.569219 0 0 104.497423 0 0 -22.392305 0
